<?xml version="1.0" encoding="UTF-8" standalone="no"?>
<!-- Created with Inkscape (http://www.inkscape.org/) -->

<svg
   version="1.1"
   id="svg62"
   width="1932.2297"
   height="605.14966"
   viewBox="0 0 1932.2297 605.14967"
   sodipodi:docname="Cordoba.svg"
   inkscape:export-filename="andalusiaRedRoofs-xl.png"
   inkscape:export-xdpi="96"
   inkscape:export-ydpi="96"
   xml:space="preserve"
   xmlns:inkscape="http://www.inkscape.org/namespaces/inkscape"
   xmlns:sodipodi="http://sodipodi.sourceforge.net/DTD/sodipodi-0.dtd"
   xmlns:xlink="http://www.w3.org/1999/xlink"
   xmlns="http://www.w3.org/2000/svg"
   xmlns:svg="http://www.w3.org/2000/svg"><defs
     id="defs66"><rect
       x="-1015.1965"
       y="1107.7877"
       width="1342.5725"
       height="297.61459"
       id="rect4222" /><linearGradient
       inkscape:collect="always"
       id="linearGradient4166"><stop
         style="stop-color:#e8cc4c;stop-opacity:1"
         offset="0"
         id="stop4162" /><stop
         style="stop-color:#c08400;stop-opacity:1"
         offset="1"
         id="stop4164" /></linearGradient><linearGradient
       inkscape:collect="always"
       id="linearGradient3887"><stop
         style="stop-color:#000000;stop-opacity:1;"
         offset="0"
         id="stop3883" /><stop
         style="stop-color:#000000;stop-opacity:0;"
         offset="1"
         id="stop3885" /></linearGradient><rect
       x="98.207809"
       y="22.798241"
       width="336.71249"
       height="69.563866"
       id="rect305" /><linearGradient
       inkscape:collect="always"
       xlink:href="#linearGradient3887"
       id="linearGradient3889"
       x1="-66.165611"
       y1="1711.9427"
       x2="793.60986"
       y2="1860.7501"
       gradientUnits="userSpaceOnUse" /><linearGradient
       inkscape:collect="always"
       xlink:href="#linearGradient3887"
       id="linearGradient3978"
       gradientUnits="userSpaceOnUse"
       x1="-66.165611"
       y1="1711.9427"
       x2="793.60986"
       y2="1860.7501" /><linearGradient
       inkscape:collect="always"
       xlink:href="#linearGradient3887"
       id="linearGradient3980"
       gradientUnits="userSpaceOnUse"
       x1="-66.165611"
       y1="1711.9427"
       x2="793.60986"
       y2="1860.7501" /><linearGradient
       inkscape:collect="always"
       xlink:href="#linearGradient3887"
       id="linearGradient3982"
       gradientUnits="userSpaceOnUse"
       x1="-66.165611"
       y1="1711.9427"
       x2="793.60986"
       y2="1860.7501" /><linearGradient
       inkscape:collect="always"
       xlink:href="#linearGradient4166"
       id="linearGradient3984"
       gradientUnits="userSpaceOnUse"
       x1="-82.844574"
       y1="1669.3834"
       x2="774.84601"
       y2="1841.405" /><linearGradient
       inkscape:collect="always"
       xlink:href="#linearGradient3887"
       id="linearGradient3986"
       gradientUnits="userSpaceOnUse"
       x1="-66.165611"
       y1="1711.9427"
       x2="793.60986"
       y2="1860.7501" /><linearGradient
       inkscape:collect="always"
       xlink:href="#linearGradient3887"
       id="linearGradient3988"
       gradientUnits="userSpaceOnUse"
       x1="-66.165611"
       y1="1711.9427"
       x2="793.60986"
       y2="1860.7501" /></defs><sodipodi:namedview
     id="namedview64"
     pagecolor="#ffffff"
     bordercolor="#000000"
     borderopacity="0.25"
     inkscape:showpageshadow="2"
     inkscape:pageopacity="0.0"
     inkscape:pagecheckerboard="0"
     inkscape:deskcolor="#d1d1d1"
     showgrid="false" /><g
     inkscape:groupmode="layer"
     inkscape:label="Image"
     id="g68"
     transform="translate(768.25502,-1625.9652)"><g
       id="g6159"
       transform="translate(132.27315,33.068288)"><text
         xml:space="preserve"
         transform="translate(142.1646,372.67712)"
         id="text303"
         style="font-style:normal;font-variant:normal;font-weight:normal;font-stretch:normal;font-size:29.3333px;font-family:'Architects Daughter';-inkscape-font-specification:'Architects Daughter';white-space:pre;shape-inside:url(#rect305);fill:#28170b" /><g
         id="g3809"
         transform="matrix(1.5418728,0,0,1.7093858,-745.91595,-1030.4858)"
         style="fill:url(#linearGradient3889);fill-opacity:1"><path
           style="fill:url(#linearGradient3978);fill-opacity:1"
           d="m -100.2756,1877.7582 v -8.4057 l 448.5,-0.024 448.5,-0.024 v 8.4294 8.4293 h -448.5 -448.5 v -8.4056 z m 40,-25.2094 c 0,-1.3276 18.807796,-54.4907 22.438666,-63.4263 1.408734,-3.4669 2.561334,-6.5763 2.561334,-6.9096 0,-0.3334 -3.100184,-1.4047 -6.889299,-2.3808 -8.331457,-2.1463 -18.837211,-7.1314 -25.610701,-12.1527 l -5,-3.7066 8.5,0.5775 c 4.675,0.3176 14.575,0.8392 22,1.159 l 13.5,0.5816 11.83411,-24.0344 11.8341,-24.0343 -5.92208,-14.2792 c -9.550688,-23.0284 -19.622915,-49.7357 -18.994127,-50.3645 1.950838,-1.9509 25.055367,12.5273 35.960347,22.534 18.6966,17.1566 35.82444,44.8962 55.29356,89.5513 17.28702,39.6502 30.56702,62.7679 44.89605,78.1546 l 7.59402,8.1546 -4.24799,-0.5362 c -25.20016,-3.1807 -50.14203,-23.0503 -75.08082,-59.8121 l -8.16717,-12.039 -7.5,1.8366 c -4.51625,1.106 -13.30368,2.0722 -22.0882,2.4286 l -14.588209,0.592 -5.812903,10.6104 c -10.969704,20.0234 -36.510688,60.2442 -36.510688,57.4955 z m 71.70482,-100.3654 c -3.96265,-7.6893 -7.42982,-13.9794 -7.70482,-13.9782 -0.3773,0 -7.22088,15.693 -11.83333,27.1319 -0.18334,0.4547 5.75883,0.8267 13.20482,0.8267 h 13.53816 z m 747.79518,95.5068 c -21.6664,-3.4551 -46.41455,-12.6273 -63.3061,-23.4628 -8.79853,-5.644 -17.75165,-14.4534 -18.75592,-18.4547 -0.36014,-1.4349 -0.84733,-2.6089 -1.08265,-2.6089 -0.23531,0 -3.34207,2.2336 -6.9039,4.9636 -8.14988,6.2466 -16.49073,8.9546 -29.95143,9.7242 -23.18097,1.3254 -32.58171,-5.9513 -25.25,-19.5449 5.76052,-10.6806 23.6194,-28.0628 42.69364,-41.5542 8.97515,-6.3482 27.80175,-16.5887 30.49747,-16.5887 0.74106,0 3.39115,6.4871 6.43412,15.75 5.99981,18.2636 11.72985,30.7692 19.70306,43.0012 10.3496,15.8777 25.56115,29.1849 39.11804,34.2208 3.24514,1.2055 7.56706,3.8436 9.80367,5.9843 2.2,2.1057 6.25,5.2183 9,6.9171 l 5,3.0886 -4.5,-0.08 c -2.475,-0.044 -8.1,-0.654 -12.5,-1.3557 z m -111.33961,-44.1375 c 4.31731,-2.9919 10.56595,-10.8182 13.88364,-17.3889 2.49964,-4.9506 3.88483,-17.5178 2.25237,-20.4348 -2.22339,-3.973 -18.95937,13.3953 -24.94713,25.8896 -3.57188,7.4533 -3.95551,9.5439 -2.31409,12.6109 1.49242,2.7887 6.57031,2.4797 11.12521,-0.6768 z m -477.31836,38.5902 c -5.03411,-2.6595 -9.27418,-8.0372 -13.78126,-17.4791 -3.54505,-7.4265 -9.61538,-24.8469 -13.59001,-39 -3.61874,-12.8859 -9.49624,-26.2474 -13.59314,-30.9017 -3.46382,-3.9351 -4.59118,-4.5983 -7.81658,-4.5983 -6.76154,0 -11.68388,6.9986 -16.66383,23.6925 -2.908,9.7483 -3.61122,22.513 -2.00614,36.4152 1.00145,8.6739 0.32859,9.8329 -4.31456,7.4319 -4.02796,-2.083 -8.5341,-8.8857 -10.6635,-16.0984 -2.18939,-7.4158 -2.49172,-27.7497 -0.56785,-38.1922 1.47424,-8.002 4.37243,-12.8561 6.11921,-10.249 0.55275,0.825 1.0119,3.225 1.02032,5.3333 0.0224,5.6052 2.04769,4.1921 4.72963,-3.2997 5.53297,-15.4562 10.92208,-20.0336 23.58602,-20.0336 30.47344,0 50.08024,32.5622 54.68537,90.8192 0.61961,7.8384 0.84598,15.1357 0.50304,16.2162 -0.77666,2.4471 -2.93825,2.4312 -7.64672,-0.056 z m 204.32598,-5.5454 c -6.96214,-1.8733 -18.32859,-7.5964 -24.89955,-12.537 -5.79447,-4.3569 -12.65269,-12.8318 -14.36968,-17.7572 l -1.11405,-3.1958 -4.30215,3.9656 c -8.58233,7.9109 -20.73008,12.1775 -35.3751,12.4246 -11.49122,0.1939 -17.47268,-0.9289 -21.06872,-3.9547 -7.18189,-6.0432 -4.14218,-14.9652 10.21522,-29.9833 10.08463,-10.5487 22.01341,-20.3904 34.75994,-28.6783 9.20783,-5.987 20.95317,-12.1693 25.09446,-13.2087 2.57922,-0.6473 2.58563,-0.6329 3.1932,7.1712 2.34874,30.1696 16.01164,59.3702 34.2009,73.0949 3.84864,2.904 9.13502,6.0482 11.74752,6.9872 12.98203,4.666 -3.08709,9.7062 -18.08199,5.6715 z m -70.56244,-30.0508 c 8.03509,-3.8129 18.26332,-18.963 19.16952,-28.394 0.52565,-5.4705 -0.41528,-11.9889 -1.73061,-11.9889 -0.47568,0 -3.15959,1.8139 -5.96424,4.0308 -9.39113,7.4233 -19.98093,22.9085 -20.8324,30.4627 -0.81648,7.2438 2.33016,9.2242 9.35773,5.8894 z m 100.30784,26.698 c -26.6007,-16.7096 -31.02798,-67.1825 -13.7785,-157.0809 2.26896,-11.825 4.44878,-21.8595 4.84405,-22.2988 0.79354,-0.882 6.05555,12.429 9.04304,22.8757 1.05088,3.6748 2.90571,12.3608 4.12184,19.3022 2.83405,16.1763 3.0209,48.5134 0.43985,76.1209 -2.60076,27.8183 -2.16552,54.1083 1.03379,62.4456 0.85602,2.2307 -0.49486,1.9075 -5.70407,-1.3647 z m -138.14937,-4.0766 c -7.39418,-2.2264 -16.03817,-10.441 -20.44774,-19.432 l -2.6841,-5.4727 -3.67002,3.3156 c -8.19143,7.4005 -23.82362,12.8196 -37.46218,12.9867 -13.94339,0.171 -22.60238,-4.1002 -24.05957,-11.8677 -1.01994,-5.4368 4.34939,-14.2825 15.55957,-25.6338 8.03485,-8.136 23.22767,-21.0435 32.00908,-27.1942 l 2.33661,-1.6366 -1.69706,-11.2894 c -4.35265,-28.9552 -5.70718,-59.3994 -3.50463,-78.769 1.12809,-9.9207 1.17144,-10.0359 3.11861,-8.2859 3.77645,3.3941 10.80377,14.1395 14.73941,22.5379 7.40123,15.7939 11.01847,33.5239 16.00261,78.4373 4.15954,37.4827 6.81118,50.7732 13.09899,65.6542 1.59301,3.7701 2.89638,7.0326 2.89638,7.25 0,0.6172 -3.22284,0.3069 -6.23596,-0.6004 z m -49.76809,-25.8682 c 8.56179,-6.8794 15.00405,-18.9411 15.00405,-28.0918 0,-9.6912 -1.5276,-10.1566 -9.48001,-2.8886 -9.79687,8.9538 -18.51999,23.0264 -18.51999,29.8775 0,5.6635 6.62078,6.2254 12.99595,1.1029 z m 228.45643,25.4581 c -6.95411,-3.0291 -16.52772,-18.0683 -19.88575,-31.2385 -2.00415,-7.8603 -2.00261,-21.2998 0.004,-31.1479 1.75759,-8.6277 9.31244,-28.3846 11.06615,-28.9393 2.59198,-0.8198 3.68634,6.5549 4.33778,29.2315 0.61658,21.4635 1.17696,26.5 2.94847,26.5 0.38973,0 2.82654,-4.8375 5.41512,-10.75 8.35378,-19.0806 20.17999,-41.726 21.97084,-42.0709 2.63661,-0.5078 3.84127,4.1705 4.20265,16.3209 0.86008,28.9178 -14.59032,73.7123 -25.33792,73.4609 -0.9203,-0.022 -3.0447,-0.6365 -4.72089,-1.3667 z m 53.04762,-2.9509 c -4.07378,-1.8852 -6.96461,-5.2136 -9.68917,-11.1558 -2.04568,-4.4615 -2.28813,-6.5168 -2.29885,-19.4875 -0.011,-13.2908 0.22156,-15.1801 2.78835,-22.6545 4.91888,-14.3238 13.15275,-24.2959 24.49896,-29.6711 5.78996,-2.7429 7.78806,-3.1744 14.70071,-3.1744 7.51318,0 14.5,1.7026 14.5,3.5334 0,0.435 -1.811,1.0968 -4.02444,1.4707 -11.41599,1.9288 -25.74111,13.9079 -29.88903,24.9942 -2.75315,7.3584 -3.89736,12.7503 -4.13849,19.5017 -0.402,11.2556 0.2648,13.25 4.42996,13.25 4.16479,0 8.7629,-4.3094 22.45459,-21.0445 18.36635,-22.449 25.96802,-28.0219 36.71047,-26.9132 16.04354,1.6558 26.14729,14.9008 34.48602,45.2077 2.26993,8.25 4.72796,16.8781 5.46228,19.1735 1.20368,3.7627 1.15834,4.3335 -0.46052,5.7986 -4.53664,4.1056 -13.04886,-3.0486 -20.1936,-16.9721 -2.54007,-4.95 -6.75731,-15.075 -9.37165,-22.5 -4.84791,-13.7686 -7.15554,-17.7167 -9.76908,-16.7138 -0.80852,0.3103 -7.44852,8.5853 -14.75554,18.389 -21.41152,28.7273 -33.77494,39.2941 -46.8454,40.038 -3.32773,0.1894 -6.81145,-0.2442 -8.59557,-1.0699 z m 80.50701,-93.7383 c 0.0195,-20.6652 11.33694,-45.4879 29.13891,-63.911 5.14938,-5.3291 16.60813,-14.994 17.77689,-14.994 0.45044,0 0.45598,1.943 0.0123,4.3179 -0.44367,2.3748 -0.39631,6.0873 0.10524,8.25 1.58695,6.8428 1.13298,14.1675 -1.16034,18.7219 -1.16673,2.3171 -7.6151,9.606 -14.34096,16.2102 -12.63756,12.409 -20.45886,21.6668 -27.47224,32.5179 l -4.06681,6.2922 0.007,-7.4051 z"
           id="path3821" /><path
           style="fill:url(#linearGradient3980);fill-opacity:1"
           d="m -100.2756,1878.1638 v -8 l 287.75,-0.046 c 158.2625,-0.025 359.975,-0.1379 448.25,-0.25 l 160.5,-0.2037 0.29044,8.25 0.29044,8.25 H 348.26484 -100.2756 Z m 42.450805,-32.75 c 7.741753,-22.4119 16.974616,-48.2689 19.555192,-54.7651 1.646701,-4.1453 2.994003,-7.8851 2.994003,-8.3106 0,-0.4255 -3.4875,-1.7907 -7.75,-3.0337 -9.431513,-2.7505 -20.526478,-8.1312 -25.25,-12.2455 l -3.5,-3.0486 5.6645,0.5755 c 3.115476,0.3164 12.886143,0.8694 21.712595,1.2289 l 16.048094,0.6534 2.752661,-6.4021 c 3.594799,-8.3608 13.28134,-27.7964 17.64418,-35.4022 l 3.44173,-6 -4.84081,-11.2481 c -7.13817,-16.5863 -21.153576,-53.3546 -20.562928,-53.9453 0.884214,-0.8842 18.024488,8.6561 25.182258,14.0165 13.81305,10.3445 27.37852,25.8445 39.17131,44.7573 5.2054,8.3482 16.6575,31.181 25.03779,49.9196 3.56659,7.975 7.59938,16.975 8.96176,20 5.36975,11.9229 15.21302,30.9179 20.12669,38.8395 6.21528,10.0199 10.54999,15.6012 18.56998,23.9105 5.89083,6.1033 5.96607,6.25 3.20565,6.25 -8.26472,0 -23.82505,-6.4061 -35.09573,-14.4487 -13.06556,-9.3234 -29.83449,-28.3523 -43.57379,-49.4465 -3.94811,-6.0616 -5.72327,-7.9929 -6.98013,-7.5939 -6.45622,2.0491 -17.44063,3.6129 -29.21226,4.1587 l -13.746442,0.6374 -5.102012,9.4642 c -8.739183,16.2112 -35.050792,58.2288 -36.463086,58.2288 -0.177575,0 0.726383,-3.0375 2.008795,-6.75 z M 11.47131,1751.703 c -3.97388,-7.9535 -7.52329,-14.141 -7.88757,-13.75 -0.36428,0.3909 -2.30356,4.7065 -4.30951,9.5901 -2.00596,4.8836 -4.75787,11.0711 -6.11536,13.75 l -2.46816,4.8707 H 4.69363 18.69655 Z m 748.19216,95.9323 c -29.69403,-4.6296 -64.05172,-20.0213 -77.66913,-34.7945 -2.31119,-2.5073 -4.4912,-5.7104 -4.84446,-7.1179 -0.35326,-1.4075 -0.88467,-2.5591 -1.1809,-2.5591 -0.29623,0 -2.461,1.5753 -4.81061,3.5006 -10.0906,8.2685 -24.3866,12.2018 -40.63999,11.1815 -13.03852,-0.8185 -18.79398,-4.5441 -18.79398,-12.1657 0,-12.7113 35.92243,-46.4755 64.74889,-60.8586 3.71311,-1.8527 7.9702,-3.6626 9.4602,-4.022 2.51612,-0.6068 2.79017,-0.35 3.84741,3.6054 5.14287,19.241 15.21017,42.4473 24.34948,56.1282 5.3133,7.9537 15.61459,18.9979 22.59402,24.2234 3.96039,2.9652 16.7802,9.4072 18.72064,9.4072 0.70239,0 3.09507,1.7643 5.31707,3.9207 2.222,2.1564 6.27252,5.3533 9.00115,7.1042 2.72863,1.751 4.96114,3.3617 4.96114,3.5794 0,0.7064 -6.30732,0.232 -15.06093,-1.1328 z M 647.3049,1804.1141 c 4.79999,-2.9666 10.95886,-10.7414 14.4952,-18.2984 2.41114,-5.1524 3.08148,-7.9592 3.1107,-13.0244 0.0478,-8.2803 -0.49627,-9.1421 -4.35139,-6.8934 -7.90395,4.6105 -21.18041,21.8451 -23.89491,31.0189 -2.49425,8.4294 2.82505,12.0274 10.6404,7.1973 z m -476.32843,37.9454 c -9.72062,-4.8116 -14.43491,-14.41 -28.19017,-57.3957 -6.67377,-20.8558 -10.99934,-29.8181 -16.04782,-33.25 -4.15905,-2.8273 -5.86581,-2.8221 -10.1162,0.03 -4.23755,2.844 -8.96243,12.1354 -12.06184,23.7196 -2.46823,9.225 -3.03898,23.6429 -1.42881,36.0931 0.74085,5.7284 0.63369,6.6772 -0.81709,7.2339 -2.49573,0.9577 -9.95812,-6.4304 -12.52727,-12.4025 -3.83323,-8.9106 -4.5472,-29.5679 -1.5306,-44.285 1.70258,-8.3064 3.23052,-10.6844 5.16512,-8.0387 0.71643,0.9798 1.30261,3.2704 1.30261,5.0903 0,5.8244 2.56879,3.8699 5.04818,-3.841 2.40022,-7.4647 6.47629,-13.7015 11.27837,-17.2572 2.4105,-1.7849 4.25043,-2.0929 12.5,-2.0929 8.65249,0 10.3067,0.3081 15.67345,2.9197 8.49779,4.1351 17.16265,13.3766 22.79269,24.3094 9.55081,18.5464 15.67802,46.4603 15.69911,71.5209 0.009,10.9247 -0.0286,10.9676 -6.73973,7.6457 z m 204.92289,-5.3544 c -15.04732,-3.6415 -33.24545,-16.8543 -38.77225,-28.1506 l -2.65035,-5.4171 -4.28597,3.9506 c -9.58072,8.8312 -21.6416,12.461 -39.46639,11.8777 -13.38081,-0.4379 -17.31771,-1.9247 -19.60748,-7.4049 -2.02459,-4.8455 -0.58434,-9.3342 5.64895,-17.6054 12.0799,-16.0294 40.98499,-38.5811 61.19642,-47.7454 3.69501,-1.6754 7.17808,-3.0462 7.74015,-3.0462 0.56905,0 1.02196,2.3794 1.02196,5.369 0,17.3196 8.53837,43.7847 19.18195,59.4554 7.19782,10.5974 24.20529,24.1756 30.28135,24.1756 2.48947,0 1.48492,3.214 -1.47216,4.7101 -3.13891,1.5882 -11.88006,1.5097 -18.81618,-0.1688 z m -69.0964,-31.4744 c 7.55662,-5.013 15.13097,-16.6258 16.88845,-25.8929 0.82069,-4.3275 0.0857,-11.4546 -1.32697,-12.8673 -0.98134,-0.9813 -7.25426,3.5922 -12.42324,9.0576 -12.15888,12.8562 -18.87834,28.386 -13.78974,31.8704 2.21524,1.5169 6.37259,0.6707 10.6515,-2.1678 z m 97.34165,27.5006 c -26.11715,-17.1269 -30.39075,-69.5291 -12.891,-158.0675 4.7471,-24.0175 4.26813,-22.9474 7.12741,-15.9238 6.89895,16.9469 10.8849,35.0267 12.42432,56.3553 1.11096,15.3923 0.76686,26.3029 -1.75252,55.5685 -1.97073,22.8923 -2.01308,50.8005 -0.0899,59.25 0.7824,3.4375 1.16131,6.2272 0.84202,6.1994 -0.3193,-0.028 -2.86645,-1.5497 -5.66033,-3.3819 z m -136.42021,-3.5026 c -8.95511,-2.7339 -16.81357,-9.8966 -21.60703,-19.6941 l -2.62805,-5.3716 -3.61554,3.1745 c -4.69165,4.1193 -18.04578,10.3041 -25.53956,11.8283 -7.52839,1.5312 -18.90148,1.5351 -24.57119,0.01 -7.58917,-2.0436 -11.80973,-7.5862 -11.0493,-14.5104 0.92297,-8.4042 17.4954,-26.2161 40.6275,-43.6661 l 9.11683,-6.8774 -0.82732,-4.4285 c -3.51576,-18.8185 -6.39729,-55.611 -5.56279,-71.0276 0.83131,-15.3577 1.79601,-23.5 2.78428,-23.5 1.77431,0 10.09565,11.8876 14.34999,20.5 8.96654,18.1516 12.36758,34.6102 18.04994,87.349 3.45507,32.0671 6.73292,46.4255 14.93023,65.401 0.82936,1.9199 -0.21389,2.1106 -4.45799,0.8149 z m -52.22858,-24.8149 c 10.57505,-7.1411 18.73983,-23.9239 16.20986,-33.3195 -0.5821,-2.1618 -1.65269,-3.9305 -2.37909,-3.9305 -2.08268,0 -9.27186,6.1148 -14.18246,12.0629 -8.62213,10.4439 -14.27943,25.6165 -10.16973,27.2748 2.99884,1.2101 6.73598,0.4685 10.52142,-2.0877 z m 229.72858,24.1774 c -4.57174,-2.3777 -7.25909,-5.2709 -12.0076,-12.9274 -7.11283,-11.4687 -9.00407,-18.6716 -8.92722,-34 0.056,-11.1793 0.44535,-14.2419 2.77965,-21.8674 1.49296,-4.8771 4.22127,-12.0771 6.06291,-16 l 3.34845,-7.1326 1.82488,4 c 1.52323,3.3388 1.92366,7.7192 2.42249,26.5 0.57417,21.6174 1.16602,26.4435 3.16135,25.7784 0.50518,-0.1684 2.85874,-4.8094 5.23014,-10.3134 2.3714,-5.504 8.0181,-17.3354 12.54824,-26.2921 11.05012,-21.8476 13.09388,-21.4116 13.25269,2.8271 0.0955,14.5686 -2.03255,26.6838 -7.66527,43.6402 -4.46701,13.4472 -9.14546,22.1383 -13.51663,25.1098 -3.92137,2.6657 -4.58896,2.7188 -8.51408,0.6774 z m 52.90107,-3.271 c -7.81556,-3.6673 -11.33638,-11.5758 -12.08984,-27.1564 -0.63965,-13.2275 1.20337,-22.5637 6.6255,-33.5628 4.31434,-8.7519 11.92433,-17.3053 18.28277,-20.5491 4.58276,-2.338 14.1345,-4.8881 18.3091,-4.8881 3.87381,0 13.4714,2.7863 13.4714,3.9109 0,0.4584 -1.70995,1.1069 -3.79989,1.4411 -5.63466,0.901 -15.41773,6.1383 -20.42112,10.9322 -7.95464,7.6217 -12.20577,16.8543 -13.88635,30.1585 -1.20646,9.551 -0.44839,15.1895 2.23523,16.6257 4.3811,2.3447 9.67147,-2.0072 23.6226,-19.4323 20.55,-25.6672 29.1074,-31.145 42.55001,-27.2371 7.83062,2.2764 15.29204,9.3191 20.49845,19.3481 4.40513,8.4856 7.38159,17.2275 12.30672,36.145 3.11881,11.9794 3.16419,12.4374 1.36275,13.7547 -1.03608,0.7576 -2.77479,1.0802 -3.91594,0.7267 -8.41028,-2.6056 -15.226,-13.5386 -24.54589,-39.3735 -5.31369,-14.7296 -7.65111,-18.7341 -10.33413,-17.7045 -0.82176,0.3153 -7.71073,8.8153 -15.30882,18.8889 -7.59809,10.0736 -17.04858,21.4943 -21.00109,25.3793 -12.55528,12.341 -24.81216,16.8858 -33.96146,12.5927 z m 81.029,-96.1564 c 0.27534,-5.225 1.2149,-12.2 2.08789,-15.5 2.22856,-8.4241 11.44781,-26.7694 17.36335,-34.5511 5.12082,-6.7363 18.14019,-19.7135 23.82395,-23.7468 l 3.20525,-2.2746 -0.14315,5.7863 c -0.0787,3.1824 0.23071,8.8154 0.68763,12.5178 1.3288,10.7669 -0.22558,13.5785 -16.40507,29.6736 -11.27171,11.2129 -20.97152,22.8274 -29.8352,35.7246 -1.07417,1.563 -1.20305,0.3099 -0.78465,-7.6298 z"
           id="path3819" /><path
           style="fill:url(#linearGradient3982);fill-opacity:1"
           d="m -100.2756,1878.1638 v -8 h 448.5 448.5 v 8 8 h -448.5 -448.5 z m 42.450805,-32.75 c 7.741753,-22.4119 16.974616,-48.2689 19.555192,-54.7651 1.646701,-4.1453 2.994003,-7.8851 2.994003,-8.3106 0,-0.4255 -3.4875,-1.7907 -7.75,-3.0337 -9.431513,-2.7505 -20.526478,-8.1312 -25.25,-12.2455 l -3.5,-3.0486 5.6645,0.5755 c 3.115476,0.3164 12.886143,0.8694 21.712595,1.2289 l 16.048094,0.6534 2.752661,-6.4021 c 3.594799,-8.3608 13.28134,-27.7964 17.64418,-35.4022 l 3.44173,-6 -4.84081,-11.2481 c -7.13817,-16.5863 -21.153576,-53.3546 -20.562928,-53.9453 0.884214,-0.8842 18.024488,8.6561 25.182258,14.0165 13.81305,10.3445 27.37852,25.8445 39.17131,44.7573 5.2054,8.3482 16.6575,31.181 25.03779,49.9196 3.56659,7.975 7.59938,16.975 8.96176,20 5.36975,11.9229 15.21302,30.9179 20.12669,38.8395 6.21528,10.0199 10.54999,15.6012 18.56998,23.9105 5.89083,6.1033 5.96607,6.25 3.20565,6.25 -8.26472,0 -23.82505,-6.4061 -35.09573,-14.4487 -13.06556,-9.3234 -29.83449,-28.3523 -43.57379,-49.4465 -3.94811,-6.0616 -5.72327,-7.9929 -6.98013,-7.5939 -6.45622,2.0491 -17.44063,3.6129 -29.21226,4.1587 l -13.746442,0.6374 -5.102012,9.4642 c -8.739183,16.2112 -35.050792,58.2288 -36.463086,58.2288 -0.177575,0 0.726383,-3.0375 2.008795,-6.75 z M 11.47131,1751.703 c -3.97388,-7.9535 -7.52329,-14.141 -7.88757,-13.75 -0.36428,0.3909 -2.30356,4.7065 -4.30951,9.5901 -2.00596,4.8836 -4.75787,11.0711 -6.11536,13.75 l -2.46816,4.8707 H 4.69363 18.69655 Z m 751.393,96.3826 c -23.2732,-3.0176 -55.85287,-15.5205 -72.51233,-27.8275 -6.22228,-4.5967 -12.45367,-11.5532 -13.27295,-14.8175 -0.3143,-1.2522 -0.7984,-2.2768 -1.0758,-2.2768 -0.27739,0 -3.15675,1.9938 -6.39857,4.4308 -7.37706,5.5454 -14.24464,8.144 -25.47165,9.638 -19.67391,2.6181 -32.40861,-1.8311 -32.40861,-11.3228 0,-12.6795 37.48183,-47.766 65.35613,-61.1794 11.85882,-5.7065 10.66197,-6.3196 15.00257,7.6854 13.33444,43.0239 33.50663,70.1379 60.1413,80.8377 3.3,1.3256 7.35,3.8112 9,5.5234 1.65,1.7121 5.3625,4.5632 8.25,6.3357 2.8875,1.7725 5.25,3.4092 5.25,3.637 0,0.5623 -4.22745,0.3256 -11.86009,-0.664 z m -110.59993,-47.9712 c 8.36571,-8.1893 14.47628,-22.7199 12.95792,-30.8135 -0.92745,-4.9437 -1.28803,-5.3197 -3.80859,-3.9714 -7.5205,4.0231 -22.27147,22.37 -24.81731,30.8672 -3.42599,11.4349 5.66626,13.7084 15.66798,3.9177 z m -481.28791,41.9451 c -9.72062,-4.8116 -14.43491,-14.41 -28.19017,-57.3957 -6.67377,-20.8558 -10.99934,-29.8181 -16.04782,-33.25 -4.15905,-2.8273 -5.86581,-2.8221 -10.1162,0.03 -4.23755,2.844 -8.96243,12.1354 -12.06184,23.7196 -2.46823,9.225 -3.03898,23.6429 -1.42881,36.0931 0.74085,5.7284 0.63369,6.6772 -0.81709,7.2339 -2.49573,0.9577 -9.95812,-6.4304 -12.52727,-12.4025 -3.83323,-8.9106 -4.5472,-29.5679 -1.5306,-44.285 1.70258,-8.3064 3.23052,-10.6844 5.16512,-8.0387 0.71643,0.9798 1.30261,3.2704 1.30261,5.0903 0,5.8244 2.56879,3.8699 5.04818,-3.841 2.40022,-7.4647 6.47629,-13.7015 11.27837,-17.2572 2.4105,-1.7849 4.25043,-2.0929 12.5,-2.0929 8.65249,0 10.3067,0.3081 15.67345,2.9197 8.49779,4.1351 17.16265,13.3766 22.79269,24.3094 9.55081,18.5464 15.67802,46.4603 15.69911,71.5209 0.009,10.9247 -0.0286,10.9676 -6.73973,7.6457 z m 202.74529,-6.2249 c -15.49639,-4.5895 -31.24712,-16.3502 -36.62873,-27.3498 l -2.61627,-5.3474 -4.28597,3.9506 c -9.58072,8.8312 -21.6416,12.461 -39.46639,11.8777 -13.38081,-0.4379 -17.31771,-1.9247 -19.60748,-7.4049 -2.02459,-4.8455 -0.58434,-9.3342 5.64895,-17.6054 12.0799,-16.0294 40.98499,-38.5811 61.19642,-47.7454 3.69501,-1.6754 7.17808,-3.0462 7.74015,-3.0462 0.56905,0 1.02196,2.3794 1.02196,5.369 0,6.8278 2.32375,20.2112 5.06598,29.1771 7.61303,24.8913 21.47937,43.6719 38.42972,52.0492 4.12737,2.0399 7.5043,4.0789 7.5043,4.5311 0,1.7688 -6.16346,3.8709 -11.20034,3.82 -2.91481,-0.03 -8.67585,-1.0535 -12.8023,-2.2756 z m -66.9188,-30.6039 c 7.55662,-5.013 15.13097,-16.6258 16.88845,-25.8929 0.82069,-4.3275 0.0857,-11.4546 -1.32697,-12.8673 -0.98134,-0.9813 -7.25426,3.5922 -12.42324,9.0576 -12.15888,12.8562 -18.87834,28.386 -13.78974,31.8704 2.21524,1.5169 6.37259,0.6707 10.6515,-2.1678 z m 97.10365,27.1912 c -25.89638,-17.3153 -29.9532,-68.431 -12.52009,-157.7525 1.93161,-9.8969 3.86105,-18.618 4.28764,-19.3803 1.92063,-3.432 10.68438,25.4809 13.60193,44.8747 1.92879,12.8213 2.15425,43.7871 0.4587,63 -3.09584,35.0799 -3.365,52.3437 -1.01819,65.3045 0.67765,3.7425 1.06913,6.9631 0.86995,7.1569 -0.19918,0.1938 -2.75516,-1.2476 -5.67994,-3.2033 z m -136.18221,-3.1932 c -8.95511,-2.7339 -16.81357,-9.8966 -21.60703,-19.6941 l -2.62805,-5.3716 -3.61554,3.1745 c -4.69165,4.1193 -18.04578,10.3041 -25.53956,11.8283 -7.52839,1.5312 -18.90148,1.5351 -24.57119,0.01 -7.58917,-2.0436 -11.80973,-7.5862 -11.0493,-14.5104 0.92297,-8.4042 17.4954,-26.2161 40.6275,-43.6661 l 9.11683,-6.8774 -0.82732,-4.4285 c -3.51576,-18.8185 -6.39729,-55.611 -5.56279,-71.0276 0.83131,-15.3577 1.79601,-23.5 2.78428,-23.5 1.77431,0 10.09565,11.8876 14.34999,20.5 8.96654,18.1516 12.36758,34.6102 18.04994,87.349 3.45507,32.0671 6.73292,46.4255 14.93023,65.401 0.82936,1.9199 -0.21389,2.1106 -4.45799,0.8149 z m -52.22858,-24.8149 c 10.57505,-7.1411 18.73983,-23.9239 16.20986,-33.3195 -0.5821,-2.1618 -1.65269,-3.9305 -2.37909,-3.9305 -2.08268,0 -9.27186,6.1148 -14.18246,12.0629 -8.62213,10.4439 -14.27943,25.6165 -10.16973,27.2748 2.99884,1.2101 6.73598,0.4685 10.52142,-2.0877 z m 229.42906,24.0784 c -7.08463,-3.4916 -15.43196,-16.8605 -19.27683,-30.8735 -4.06963,-14.8321 -1.22865,-35.2632 7.48409,-53.8223 l 3.34845,-7.1326 1.82488,4 c 1.52323,3.3388 1.92366,7.7192 2.42249,26.5 0.57417,21.6174 1.16602,26.4435 3.16135,25.7784 0.50518,-0.1684 2.85874,-4.8094 5.23014,-10.3134 2.3714,-5.504 8.0181,-17.3354 12.54824,-26.2921 10.99727,-21.7431 13.0134,-21.3873 13.18567,2.3271 0.18537,25.5188 -11.0603,62.3768 -21.12875,69.25 -3.90134,2.6633 -4.49069,2.702 -8.79973,0.5784 z m 54.29952,-2.7855 c -8.06703,-2.9196 -12.33103,-11.6599 -13.22754,-27.1137 -0.6583,-11.3473 1.5389,-22.9876 6.2733,-33.2346 4.62184,-10.0034 14.47925,-19.9424 22.95424,-23.1444 7.21275,-2.725 19.13186,-3.122 24.37644,-0.8118 3.69424,1.6273 3.39332,2.1514 -1.87644,3.2681 -10.67211,2.2616 -22.57366,11.744 -27.84394,22.1843 -5.6175,11.1283 -7.97379,29.8428 -4.32478,34.3492 3.88931,4.8031 10.39601,-0.026 25.62082,-19.0148 13.06498,-16.2951 22.06179,-24.5373 28.97857,-26.5481 17.75108,-5.1603 32.66749,9.4505 41.3864,40.5387 6.47403,23.0838 7.38374,26.8503 6.73765,27.8957 -1.06599,1.7248 -5.52546,1.2697 -9.07901,-0.9265 -6.31025,-3.9 -12.62285,-15.5208 -20.90549,-38.485 -5.06344,-14.0387 -7.43443,-17.6878 -10.33412,-15.9046 -0.95485,0.5872 -4.78929,5.0809 -8.52098,9.9861 -17.49285,22.9938 -21.08823,27.4028 -27.90957,34.2251 -11.35506,11.3566 -23.20723,16.0293 -32.30555,12.7363 z m 79.82087,-96.0429 c 1.05301,-17.0329 8.1036,-34.9626 19.91803,-50.6516 5.44276,-7.2278 17.70285,-19.5345 23.75014,-23.8406 l 2.74999,-1.9582 -0.0292,6.2252 c -0.016,3.4239 0.32623,9.2247 0.76061,12.8907 1.13887,9.6117 -1.0831,13.7197 -14.24419,26.3345 -11.51816,11.0401 -20.33333,21.192 -28.25122,32.5352 l -5.2106,7.4648 0.5564,-9 z"
           id="path3817" /><path
           style="fill:url(#linearGradient3984);fill-opacity:1"
           d="m -100.2756,1878.1638 v -8 h 448.5 448.5 v 8 8 h -448.5 -448.5 z m 41.019406,-27.5113 c 0.0219,-1.1155 19.595342,-56.1745 22.811887,-64.1685 l 2.084202,-5.1798 -3.207747,-0.6983 c -10.727766,-2.3352 -24.99496,-8.772 -31.207748,-14.0797 l -3,-2.563 4,0.6252 c 2.2,0.3439 11.929221,0.9067 21.62049,1.2508 l 17.620491,0.6256 8.456091,-17.4363 c 4.650848,-9.59 10.127298,-20.2879 12.169878,-23.773 l 3.71379,-6.3366 -5.95014,-14.1276 c -7.588459,-18.0174 -20.222134,-50.8693 -19.745748,-51.3457 0.654593,-0.6546 15.962938,7.8094 22.615148,12.5039 14.98423,10.5745 30.76074,28.5121 42.56029,48.3904 8.16544,13.7561 12.58919,22.5959 23.1159,46.1918 22.68862,50.8572 33.1657,69.0903 48.86935,85.0469 6.09776,6.196 5.81446,6.4658 -4.28804,4.0838 -23.31612,-5.4975 -46.36062,-25.3271 -68.95514,-59.3352 -6.51575,-9.8072 -7.81995,-11.2508 -9.66712,-10.7004 -5.92479,1.7654 -19.06043,3.5815 -30.21893,4.178 l -12.476598,0.667 -5.612552,10.096 c -11.596866,20.8607 -35.35718,58.6028 -35.307754,56.0847 z m 77.813924,-85.3153 c -1.32537,-3.2866 -14.43657,-28.1447 -14.83333,-28.1231 -0.275,0.015 -3.26557,6.5348 -6.64571,14.4885 l -6.14571,14.4612 H 4.91202 c 7.68848,0 13.82905,-0.372 13.64571,-0.8266 z m 746.16667,82.7488 c -37.63918,-4.7723 -83.57626,-27.4327 -87.52776,-43.1768 -0.37898,-1.51 -0.92323,-2.7454 -1.20945,-2.7454 -0.28621,0 -2.20635,1.5232 -4.26698,3.3848 -9.27815,8.3823 -19.67691,11.8191 -35.99581,11.8967 -5.775,0.027 -12.32931,-0.4696 -14.56513,-1.1046 -9.68281,-2.7498 -11.69578,-10.6921 -5.1924,-20.4869 10.94373,-16.4824 38.48888,-39.5324 60.25753,-50.424 12.78983,-6.3991 11.62829,-6.7473 14.96203,4.4851 13.11102,44.175 34.03019,72.8693 60.68492,83.2399 3.90841,1.5207 7.65334,3.7567 8.85911,5.2896 1.1488,1.4604 4.7674,4.3087 8.04133,6.3295 3.27394,2.0208 5.95261,3.8352 5.95261,4.032 0,0.4482 -1.82159,0.3171 -10,-0.7199 z m -119.39443,-42.5393 c 7.75758,-3.6812 18.26677,-18.7489 19.92585,-28.5689 0.84909,-5.0257 -0.27519,-12.814 -1.84978,-12.814 -1.91692,0 -11.51319,8.3119 -16.32558,14.1405 -5.47671,6.6333 -11.35606,18.1088 -11.35606,22.1651 0,3.2792 2.42524,6.6944 4.75386,6.6944 0.79413,0 2.9774,-0.7277 4.85171,-1.6171 z m -472.01983,37.5737 c -3.60412,-1.0778 -9.95874,-7.1191 -13.13361,-12.486 -3.98746,-6.7406 -8.17486,-17.8292 -15.0402,-39.8279 -9.72235,-31.1533 -14.54586,-39.9788 -22.56115,-41.2795 -8.40975,-1.3647 -16.0145,12.0894 -20.4259,36.1368 -1.54834,8.4403 -1.54271,9.6339 0.0906,19.1938 1.87553,10.9777 1.6307,13.3062 -1.3991,13.3062 -2.84359,0 -9.72571,-8.3486 -11.8124,-14.3295 -2.5761,-7.3836 -2.58187,-36.5182 -0.009,-44.9205 2.25184,-7.3536 4.3833,-7.6552 5.29931,-0.75 0.95144,7.1723 2.93039,6.4316 5.34315,-2 4.53241,-15.8388 12.23067,-21.8628 26.41916,-20.6733 24.64478,2.0661 42.10439,27.3353 49.17678,71.1733 1.8943,11.7418 3.18021,37.5399 1.86491,37.4141 -0.49411,-0.047 -2.20981,-0.4782 -3.81265,-0.9575 z m 200.41162,-7.2858 c -15.43949,-4.5726 -31.24913,-16.3543 -36.58765,-27.2658 l -2.5752,-5.2635 -6.12398,4.9347 c -9.55807,7.702 -20.12855,10.9062 -36.01771,10.918 -14.91913,0.011 -21.69282,-3.4225 -21.69282,-10.9961 0,-2.2536 0.73232,-5.5376 1.62739,-7.2978 7.29246,-14.3409 38.7203,-41.0369 61.87261,-52.5569 12.76226,-6.3501 12.5,-6.3643 12.5,0.6787 0,6.918 2.2157,19.3988 5.14448,28.9782 8.24053,26.9531 24.17951,46.9681 43.08642,54.1048 3.20232,1.2088 2.85457,3.2793 -0.83296,4.9595 -3.82984,1.7449 -12.11492,1.2601 -20.40058,-1.1938 z m -66.33287,-30.5427 c 8.51342,-6.1671 17.33551,-21.5141 17.33551,-30.157 0,-3.9623 -1.9983,-8.9711 -3.57908,-8.9711 -2.34423,0 -15.19806,12.8939 -19.81877,19.8806 -5.91276,8.9402 -8.40335,16.0656 -6.8258,19.5279 1.70161,3.7346 7.52031,3.608 12.88814,-0.2804 z m 95.39179,26.0064 c -5.91456,-4.4441 -9.03762,-8.3249 -13.09226,-16.2685 -10.65272,-20.8704 -11.68133,-61.8882 -2.88051,-114.866 2.46897,-14.8623 7.76251,-41.4095 8.83546,-44.31 1.33656,-3.6131 9.34501,20.597 12.70849,38.4187 2.09434,11.097 2.89843,46.3612 1.46824,64.3913 -2.90837,36.6651 -3.41268,50.2992 -2.26347,61.1928 0.62705,5.944 1.42381,11.8197 1.77057,13.0572 0.89625,3.1986 -0.64616,2.8179 -6.54652,-1.6155 z m -135.26395,-2.589 c -8.69468,-2.2436 -16.04605,-9.1233 -21.68708,-20.2955 -1.18025,-2.3375 -2.33398,-4.25 -2.56386,-4.25 -0.22987,0 -1.90823,1.3767 -3.72967,3.0594 -7.76557,7.174 -24.42793,12.8991 -37.6189,12.9258 -9.83511,0.02 -15.63156,-1.5902 -19.76741,-5.4908 -4.16771,-3.9306 -4.54682,-8.5464 -1.25966,-15.3368 2.95041,-6.0947 19.66567,-23.2198 32.53934,-33.3372 17.07828,-13.4217 15.42832,-10.9263 13.76664,-20.8204 -3.37075,-20.0704 -4.67743,-39.1869 -4.30472,-62.9774 0.22295,-14.2307 0.79186,-24.249 1.44023,-25.3614 0.95063,-1.6312 1.64137,-1.0663 6.11398,5 13.84896,18.7834 19.97823,39.9184 24.7487,85.3388 4.05778,38.6347 5.27092,46.4012 9.67959,61.9685 1.63058,5.7576 4.07671,12.6824 5.43585,15.3884 1.35913,2.706 2.34593,5.0287 2.19289,5.1616 -0.15304,0.133 -2.3967,-0.3049 -4.98592,-0.973 z m -50.94601,-24.5491 c 7.43202,-5.3838 14.53204,-17.1819 15.76845,-26.2025 0.61227,-4.467 -0.97099,-11.7939 -2.54852,-11.7939 -1.74776,0 -10.2608,7.3737 -14.44925,12.5155 -8.84056,10.8527 -13.89346,22.2309 -11.69592,26.337 1.76877,3.305 7.72565,2.9104 12.92524,-0.8561 z m 230.11638,24.8026 c -3.87742,-1.421 -10.79383,-8.7392 -14.45906,-15.299 -5.85824,-10.4847 -7.92915,-18.5451 -7.96465,-31 -0.0354,-12.432 1.72409,-20.8809 7.16881,-34.4231 4.66324,-11.5985 4.81551,-11.8361 6.07545,-9.4819 2.1835,4.0799 3.21675,14.5121 3.21675,32.4779 0,16.5286 0.20966,18.9645 1.80153,20.9303 l 1.80152,2.2248 2.86328,-6.864 c 5.48532,-13.1497 21.1816,-44.8739 22.89394,-46.2716 3.46492,-2.8283 4.13986,-0.021 4.13764,17.2071 -0.002,17.6816 -1.21371,25.3801 -6.71937,42.7005 -5.05562,15.9046 -11.52514,26.916 -16.59256,28.2411 -0.96831,0.2532 -2.86879,0.054 -4.22328,-0.4421 z m 54.51638,-2.7067 c -7.68782,-1.8984 -12.42843,-8.8957 -14.56753,-21.502 -4.11128,-24.2288 7.66123,-52.1352 25.76068,-61.0648 6.849,-3.3791 19.47851,-4.6209 25.79474,-2.5364 4.28445,1.414 3.80353,2.1799 -2.46697,3.9289 -18.38698,5.1286 -30.16184,21.7082 -31.66213,44.582 -0.52099,7.9431 -0.36321,9.2785 1.34365,11.3717 4.20749,5.1598 10.6975,0.4019 26.29644,-19.2782 16.1079,-20.3222 24.3281,-26.611 34.7322,-26.5715 17.77934,0.067 27.53964,13.2877 37.94933,51.4023 4.68811,17.1653 4.71655,17.991 0.63343,18.3859 -7.46279,0.7217 -16.57763,-12.8108 -25.77262,-38.2638 -8.77986,-24.3039 -7.93537,-24.2602 -25.0353,-1.2964 -24.20387,32.5038 -39.38961,44.2047 -53.00592,40.8423 z m 77.89153,-96.0923 c 2.11532,-27.6621 17.17827,-53.8423 42.5318,-73.9227 l 3.65566,-2.8953 0.0341,6.659 c 0.0188,3.6624 0.40063,9.1931 0.84861,12.2903 0.71675,4.9554 0.50287,6.312 -1.78208,11.303 -1.72607,3.7702 -4.52735,7.4141 -8.35561,10.8687 -12.70278,11.4631 -24.49298,24.9533 -33.9145,38.8045 l -3.66798,5.3925 0.64999,-8.5 z"
           id="path3815" /><path
           style="fill:url(#linearGradient3986);fill-opacity:1"
           d="m 383.9744,1885.4248 c 3.1625,-0.1984 8.3375,-0.1984 11.5,0 3.1625,0.1985 0.575,0.3608 -5.75,0.3608 -6.325,0 -8.9125,-0.1623 -5.75,-0.3608 z m 251.85724,0.2984 c 0.24232,-0.2423 3.70821,-0.536 7.70197,-0.6526 3.99376,-0.1166 7.51056,-0.6152 7.81512,-1.108 0.306,-0.4951 1.18496,-0.372 1.9647,0.2751 1.74472,1.448 1.87402,-0.175 0.16097,-2.0206 -0.83598,-0.9007 -0.85983,-1.1277 -0.072,-0.6855 1.42965,0.8025 2.62002,-2.4276 1.73989,-4.7212 -0.3451,-0.8993 -1.07698,-1.3573 -1.6264,-1.0177 -0.54942,0.3395 -0.22551,-0.5631 0.71979,-2.0058 1.59551,-2.435 1.59872,-2.6231 0.0447,-2.6231 -0.92071,0 -1.41513,0.4189 -1.0987,0.9309 0.31644,0.512 0.10684,1.2205 -0.46575,1.5743 -0.5726,0.3539 -0.91744,0.047 -0.76632,-0.6809 0.19656,-0.9473 -1.57562,-1.4887 -6.22522,-1.9017 -3.575,-0.3176 28.825,-0.6551 72,-0.75 l 78.5,-0.1726 v 8 8 h -80.41667 c -44.22916,0 -80.2184,-0.1983 -79.97609,-0.4406 z m 21.4769,-8.276 c 0.0719,-5.5958 -0.10461,-6.2921 -1.21126,-4.7787 -0.95452,1.3054 -1.01537,2.2948 -0.23125,3.7599 0.69682,1.3021 0.7358,2.7214 0.11291,4.1119 -0.52317,1.1679 -0.74759,2.7141 -0.49872,3.436 0.93362,2.708 1.74698,-0.1966 1.82832,-6.5291 z m 4.26311,6.8766 c 1.39287,1.048 1.4562,1.0231 0.40275,-0.1582 -2.35042,-2.6358 -1.2548,-3.3548 1.41125,-0.9261 1.46369,1.3334 2.25808,1.7493 1.76531,0.9243 -0.49276,-0.825 -0.94169,-2.625 -0.99761,-4 -0.0559,-1.375 -0.46294,-3.3252 -0.90448,-4.3338 -0.64103,-1.4644 -0.99255,-1.5651 -1.74452,-0.5 -0.63194,0.895 -0.74064,0.347 -0.33046,-1.6662 0.45049,-2.211 0.34429,-2.6055 -0.4038,-1.5 -0.90228,1.3333 -1.01847,1.3333 -1.04569,0 -0.0241,-1.1788 -0.20795,-1.2204 -0.85885,-0.1941 -0.45552,0.7182 -0.70979,3.6432 -0.56503,6.5 0.3413,6.7355 0.47594,7.4579 1.10007,5.9024 0.41517,-1.0347 0.84716,-1.0443 2.17106,-0.048 z m -2.40594,-6.391 c -0.0548,-4.9202 0.005,-5.0531 0.89785,-2.0079 0.57469,1.9593 0.59812,4.0627 0.0587,5.2691 -0.67646,1.5128 -0.91232,0.7086 -0.95654,-3.2612 z m 3.22536,3.5643 c -0.36667,-0.3666 -0.66667,-1.7916 -0.66667,-3.1666 0,-3.1518 1.38343,-1.927 1.56015,1.3812 0.1428,2.6731 0.0932,2.7722 -0.89348,1.7854 z m 5.73032,1.8334 c 0.28327,-0.4584 -0.12038,-0.8334 -0.89699,-0.8334 -0.77661,0 -1.18026,0.375 -0.89699,0.8334 0.28326,0.4583 0.68691,0.8333 0.89699,0.8333 0.21008,0 0.61373,-0.375 0.89699,-0.8333 z m -3.17472,-9.1021 c -0.9266,-1.6145 -1.86662,-2.7536 -2.08895,-2.5312 -0.43837,0.4383 2.63676,5.4666 3.34322,5.4666 0.23674,0 -0.32768,-1.3209 -1.25427,-2.9354 z m -11.88894,4.4794 c 0,-0.8008 0.38234,-1.2197 0.84965,-0.9309 0.4673,0.2888 0.59075,0.944 0.27431,1.456 -0.80862,1.3084 -1.12396,1.1611 -1.12396,-0.5251 z m -274.58333,-8.2891 c 5.0875,-0.1815 13.4125,-0.1815 18.5,0 5.0875,0.1815 0.925,0.33 -9.25,0.33 -10.175,0 -14.3375,-0.1485 -9.25,-0.33 z m 387.92499,-22.3109 c -25.58921,-2.974 -54.84396,-13.6455 -74.3232,-27.1115 -8.11883,-5.6125 -11.74171,-9.3911 -14.19392,-14.804 -0.87921,-1.9407 -1.68592,-3.6775 -1.7927,-3.8597 -0.10678,-0.1821 -2.60055,1.6289 -5.54171,4.0245 -8.36345,6.8122 -22.49013,12.0591 -22.49013,8.3534 0,-1.1103 0.32223,-1.2911 1.03334,-0.58 1.28656,1.2865 2.95645,1.3651 2.17604,0.1024 -0.31644,-0.512 -0.0485,-1.2565 0.59549,-1.6545 0.77343,-0.478 0.90143,-0.2877 0.37711,0.5606 -0.52908,0.8561 -0.33054,1.1299 0.59549,0.8212 0.76406,-0.2547 1.3892,-1.4006 1.3892,-2.5464 0,-1.1458 0.3375,-2.4208 0.75,-2.8333 1.71641,-1.7164 0.58766,-2.5798 -1.22642,-0.938 -1.08703,0.9837 -1.6925,2.248 -1.34549,2.8095 0.37051,0.5995 0.13437,0.7139 -0.57214,0.2773 -0.84457,-0.522 -0.89319,-1.1169 -0.16318,-1.9965 0.57193,-0.6892 0.70628,-1.5866 0.29855,-1.9943 -0.40772,-0.4078 -0.29132,-0.6506 0.25868,-0.5396 2.14789,0.4333 2.52635,-0.1174 1.4556,-2.1181 -0.98899,-1.8479 -1.30324,-1.9188 -2.78518,-0.6285 -0.91873,0.8 -2.79542,1.9753 -4.17042,2.6119 l -2.5,1.1574 2.5,-1.7281 c 1.375,-0.9504 4.6375,-3.9807 7.25,-6.734 2.6125,-2.7533 4.75,-4.6116 4.75,-4.1296 0,0.482 -0.70431,1.6547 -1.56514,2.6059 -1.03787,1.1468 -1.20631,1.9512 -0.5,2.3877 0.59744,0.3693 1.096,-0.136 1.13543,-1.1507 0.0623,-1.6039 0.15957,-1.5823 0.8579,0.191 0.4332,1.1 0.66258,4.7 0.50975,8 -0.26095,5.6345 -0.23098,5.7259 0.4919,1.5 l 0.76977,-4.5 0.2921,4 0.2921,4 0.6081,-4 c 0.33445,-2.2 0.88731,-3.55 1.22857,-3 0.34127,0.55 0.50459,1.7125 0.36295,2.5833 -0.14165,0.8709 0.35949,1.5834 1.11364,1.5834 0.9535,0 1.06765,-0.3658 0.37472,-1.2007 -0.67883,-0.8179 -0.57202,-1.5529 0.33512,-2.3057 1.08068,-0.8969 1.61155,-7.902 0.67524,-8.9103 -0.12768,-0.1375 -0.34465,-0.7 -0.48215,-1.25 -0.1375,-0.55 -0.3625,-1.225 -0.5,-1.5 -0.82078,-1.6415 -0.38997,-3.2914 1.43428,-5.4928 l 2.06572,-2.4929 -2.08115,1.745 c -1.14463,0.9598 -2.45428,1.4066 -2.91033,0.9929 -0.45604,-0.4137 -0.53698,-0.2407 -0.17986,0.3845 0.35713,0.6252 -0.0207,1.6928 -0.83967,2.3724 -0.8695,0.7217 -1.48899,2.9184 -1.48899,5.28 0,4.6755 -0.82466,4.5523 -1.37867,-0.2059 -0.25863,-2.2213 0.60909,-5.2017 2.74154,-9.4166 2.6817,-5.3004 3.12114,-7.2435 3.12853,-13.8333 0.007,-6.5805 -0.31019,-8.0064 -2.2414,-10.0645 -1.2375,-1.3187 -2.25,-2.7759 -2.25,-3.2382 0,-0.4623 1.0125,0.012 2.25,1.0538 1.2375,1.0418 1.91152,1.4856 1.49782,0.9861 -0.4137,-0.4995 -0.0469,-1.6875 0.81514,-2.6401 1.09136,-1.2059 1.22912,-1.9409 0.45362,-2.4201 -0.80086,-0.495 -0.75378,-1.1549 0.16763,-2.3493 1.07748,-1.3968 0.95298,-1.3822 -0.78259,0.091 -1.13516,0.9637 -2.38275,1.4333 -2.77243,1.0436 -0.38969,-0.3896 -0.96815,0.2844 -1.28548,1.4979 -0.31734,1.2134 -1.00105,2.2063 -1.51936,2.2063 -0.51831,0 -0.61868,-0.5625 -0.22304,-1.25 0.39564,-0.6875 0.33417,-0.8995 -0.1366,-0.4711 -1.34561,1.2246 -1.4546,3.8298 -0.12693,3.0339 0.77616,-0.4653 0.74988,-0.1872 -0.0791,0.8372 -0.68273,0.8437 -0.90773,1.9023 -0.5,2.3523 0.40772,0.4501 0.17882,0.4946 -0.50868,0.099 -0.6875,-0.3956 -1.25,-0.2428 -1.25,0.3397 0,1.4911 1.05757,1.3169 3.07198,-0.5061 0.97283,-0.8804 1.98398,-1.1534 2.31121,-0.6239 0.31997,0.5177 -1.26221,2.2192 -3.51593,3.781 -2.25373,1.5618 -6.74584,5.7738 -9.98248,9.36 -7.50628,8.3169 -8.08956,7.8277 -0.8521,-0.7146 0.58836,-0.6944 0.79833,-1.7018 0.4666,-2.2386 -0.35402,-0.5728 0.10564,-0.7039 1.11283,-0.3174 1.18061,0.4531 1.48561,0.2858 0.97761,-0.5362 -0.44708,-0.7234 -0.21591,-1.0863 0.58595,-0.92 0.72838,0.1512 1.20068,-0.3211 1.04955,-1.0495 -0.15112,-0.7284 0.18638,-1.0393 0.75,-0.691 0.56363,0.3483 1.08103,0.1568 1.14978,-0.4257 0.0688,-0.5824 0.20886,-1.6215 0.31135,-2.309 0.1025,-0.6875 -0.29125,-1.925 -0.875,-2.75 -0.92083,-1.3014 -0.82966,-1.3183 0.68865,-0.1275 1.91845,1.5045 2.42961,0.2071 0.62814,-1.5943 -1.35356,-1.3536 -4.13642,-0.5051 -3.21789,0.9811 0.35682,0.5774 0.19429,0.7689 -0.36118,0.4256 -0.55546,-0.3433 -2.98749,1.0316 -5.4045,3.0554 -2.41702,2.0239 -3.49457,2.6345 -2.39457,1.3571 5.64619,-6.5569 31.15959,-22.9491 41.27217,-26.517 3.67408,-1.2963 4.22783,-1.3018 4.22783,-0.042 0,3.3949 9.22886,29.0935 14.21229,39.5754 12.32237,25.9183 27.17214,42.2912 46.16942,50.9049 3.61591,1.6396 7.06331,2.981 7.66089,2.981 0.59759,0 2.18968,1.311 3.53798,2.9134 1.34831,1.6024 4.91925,4.5514 7.93544,6.5534 3.01619,2.0021 5.48398,3.841 5.48398,4.0866 0,0.2456 -0.1125,0.3875 -0.25,0.3152 -0.1375,-0.072 -3.32125,-0.4884 -7.07501,-0.9247 z m -108.60068,-39.301 c 0.0409,-2.2786 0.26713,-5.268 0.5028,-6.643 0.31285,-1.8253 0.17566,-2.1081 -0.50833,-1.0477 -0.51525,0.7987 -0.73417,1.7801 -0.48649,2.1809 0.24769,0.4007 0.0165,0.9967 -0.5137,1.3244 -0.546,0.3375 -0.78279,-0.3453 -0.54607,-1.5745 0.56745,-2.9466 -0.39266,-4.2358 -2.09955,-2.8192 -1.18249,0.9814 -1.08155,1.6068 0.65227,4.0418 1.20637,1.6942 1.72847,3.3983 1.2676,4.1375 -1.36769,2.1935 -1.15315,5.6212 0.31653,5.0573 0.8036,-0.3084 1.3704,-2.1741 1.41494,-4.6575 z m 10.35566,-13.5297 c 0.30141,-0.4877 -0.23454,-1.5002 -1.19098,-2.25 -1.53617,-1.2043 -1.59421,-1.1776 -0.49767,0.2287 0.68273,0.8756 0.94523,1.8881 0.58334,2.25 -0.3619,0.3619 -0.38455,0.658 -0.0503,0.658 0.3342,0 0.85425,-0.399 1.15565,-0.8867 z m -2.30241,-9.8633 c 1.24387,-1.5861 1.2085,-1.6214 -0.37756,-0.3776 -0.9625,0.7549 -1.75,1.5424 -1.75,1.75 0,0.8231 0.82119,0.2934 2.12756,-1.3724 z m -9.12756,-19.25 c 0,-0.55 -0.19844,-1 -0.44098,-1 -0.24254,0 -0.7191,0.45 -1.05902,1 -0.33992,0.55 -0.14148,1 0.44098,1 0.58246,0 1.05902,-0.45 1.05902,-1 z m 0.60713,-5.5289 c 0.24481,-1.668 0.16084,-1.703 -2.05087,-0.8543 -1.25802,0.4827 -1.35348,0.9226 -0.43928,2.0242 1.2746,1.5358 2.15365,1.1228 2.49015,-1.1699 z m 10.52043,-1.2211 c 1.24387,-1.5861 1.2085,-1.6214 -0.37756,-0.3776 -0.9625,0.7549 -1.75,1.5424 -1.75,1.75 0,0.8231 0.82119,0.2934 2.12756,-1.3724 z m -283.12756,77.8887 c 0,-0.4738 1.125,-0.6463 2.5,-0.3834 1.375,0.2628 2.5,0.6504 2.5,0.8613 0,0.2109 -1.125,0.3834 -2.5,0.3834 -1.375,0 -2.5,-0.3876 -2.5,-0.8613 z m -6.25,-0.801 c 0.6875,-0.2774 1.8125,-0.2774 2.5,0 0.6875,0.2774 0.125,0.5044 -1.25,0.5044 -1.375,0 -1.9375,-0.227 -1.25,-0.5044 z m 15,-0.3689 c 3.12231,-1.255 2.81365,-2.3632 -1.04701,-3.7592 -1.81335,-0.6557 -4.17585,-1.8619 -5.25,-2.6803 -1.07414,-0.8185 0.84064,-0.2745 4.25507,1.2089 5.84117,2.5376 6.11273,2.8023 4.59501,4.4794 -0.88717,0.9803 -2.3308,1.7539 -3.20806,1.719 -1.0381,-0.041 -0.8094,-0.3791 0.65499,-0.9678 z m 3.19125,-10.7188 c -3.97331,-4.4631 -9.97997,-15.6638 -9.90932,-18.478 0.0176,-0.6996 1.3667,1.8847 2.99808,5.743 1.63139,3.8582 5.02692,9.3707 7.54562,12.25 2.51871,2.8792 4.35781,5.235 4.0869,5.235 -0.2709,0 -2.39548,-2.1375 -4.72128,-4.75 z m 244.05875,-8.6365 c 0,-0.2126 1.35,-0.5846 3,-0.8268 1.65,-0.2422 3,-0.068 3,0.3865 0,0.4547 -1.35,0.8268 -3,0.8268 -1.65,0 -3,-0.1739 -3,-0.3865 z m -255.42857,-14.1849 c -0.36782,-1.4655 -0.47591,-2.8574 -0.24019,-3.0932 0.23571,-0.2357 0.72951,0.7705 1.09733,2.236 0.36782,1.4655 0.47591,2.8575 0.24019,3.0932 -0.23571,0.2357 -0.72951,-0.7705 -1.09733,-2.236 z m 278.20292,2.0124 c -0.27753,-0.2775 -0.34036,-1.9152 -0.13962,-3.6393 0.20075,-1.7241 0.0793,-2.8491 -0.26989,-2.4999 -0.34918,0.3492 -0.68662,1.5549 -0.74986,2.6794 -0.0632,1.1244 -0.56498,1.9261 -1.11498,1.7816 -0.55,-0.1445 -0.81131,-0.7128 -0.58068,-1.2628 0.23063,-0.55 0.61422,-2.8 0.85243,-5 0.2382,-2.2 0.90303,-4.45 1.47738,-5 0.70597,-0.676 0.82948,-0.6174 0.38126,0.1809 -0.36466,0.6495 -0.18382,1.4771 0.40186,1.839 0.73561,0.4547 0.68832,1.1119 -0.15296,2.1256 -0.97,1.1687 -0.94485,1.405 0.12358,1.1609 0.9222,-0.2106 1.38761,0.8819 1.4892,3.4959 0.13887,3.5727 -0.57168,5.2848 -1.71772,4.1387 z m -279.5794,-8.941 c 0.0204,-1.65 0.2445,-2.2039 0.49804,-1.231 0.25354,0.973 0.23687,2.323 -0.0371,3 -0.27393,0.6771 -0.48137,-0.119 -0.46099,-1.769 z m -1.5481,-7.2192 c -0.34366,-2.0794 -0.56847,-6.0308 -0.49958,-8.7808 0.0954,-3.8068 0.31973,-2.9799 0.94021,3.4655 0.85617,8.8935 0.62052,11.7362 -0.44063,5.3153 z m 258.35315,-3.2218 c 0,-0.5175 0.44485,-1.2159 0.98855,-1.5519 0.56686,-0.3504 0.7345,0.051 0.39301,0.941 -0.66479,1.7324 -1.38156,2.0494 -1.38156,0.6109 z m -3,-12.4366 c 0,-0.2076 0.7875,-0.9951 1.75,-1.75 1.58606,-1.2438 1.62143,-1.2085 0.37756,0.3776 -1.30637,1.6658 -2.12756,2.1955 -2.12756,1.3724 z m 24.65799,-13.2977 c -1.21198,-1.212 -0.67448,-3.1501 0.81307,-2.9318 2.27552,0.334 2.70892,1.2128 1.2111,2.4559 -0.7514,0.6236 -1.66227,0.8378 -2.02417,0.4759 z m -280.31518,-13.8247 c 0.004,-4.4 0.17944,-6.0756 0.39069,-3.7236 0.21124,2.3521 0.20827,5.9521 -0.007,8 -0.21487,2.048 -0.38771,0.1236 -0.38408,-4.2764 z m 196.88919,-11.5 c 0,-1.925 0.2058,-2.7125 0.45733,-1.75 0.25152,0.9625 0.25152,2.5375 0,3.5 -0.25153,0.9625 -0.45733,0.175 -0.45733,-1.75 z m -195.97982,-1.5 c 0.0111,-2.2 0.21589,-2.9822 0.45508,-1.7383 0.23919,1.2439 0.23011,3.0439 -0.0202,4 -0.25029,0.9561 -0.446,-0.062 -0.4349,-2.2617 z m 1.02018,-8.5 c 0,-2.475 0.19502,-3.4875 0.43337,-2.25 0.23836,1.2375 0.23836,3.2625 0,4.5 -0.23835,1.2375 -0.43337,0.225 -0.43337,-2.25 z m 0.82731,-6.5 c -0.16091,-2.8953 3.25938,-24.2846 3.59789,-22.5 0.15649,0.825 -0.564,6.675 -1.60111,13 -1.0371,6.325 -1.93565,10.6 -1.99678,9.5 z m 4.09528,-27 c 0.0204,-1.65 0.2445,-2.2039 0.49804,-1.231 0.25354,0.973 0.23687,2.323 -0.0371,3 -0.27388,0.6771 -0.48132,-0.119 -0.46094,-1.769 z m 1.02304,-5.5 c -0.0102,-1.375 0.34166,-3.625 0.78201,-5 0.62738,-1.959 0.79661,-2.0672 0.78201,-0.5 -0.0103,1.1 -0.36216,3.35 -0.78201,5 -0.68569,2.6947 -0.76527,2.7456 -0.78201,0.5 z m 1.88511,-10 c -0.0355,-1.375 0.56156,-4.75 1.32677,-7.5 1.7884,-6.4271 1.84734,-3.8001 0.0897,4 -0.74359,3.3 -1.38102,4.875 -1.4165,3.5 z m 3.11258,-15 c -0.009,-0.825 0.30582,-2.625 0.69954,-4 l 0.71587,-2.5 0.54,2.7197 c 0.297,1.4959 0.18906,2.5029 -0.23986,2.2378 -0.42893,-0.2651 -0.98672,0.311 -1.23955,1.2803 -0.29793,1.1421 -0.46542,1.2344 -0.476,0.2622 z"
           id="path3813" /><path
           style="fill:url(#linearGradient3988);fill-opacity:1"
           d="m 685.83207,1885.7228 c 0.24255,-0.2426 7.05126,-0.5369 15.13046,-0.6541 8.0792,-0.1172 14.50982,-0.5037 14.29025,-0.859 -0.21956,-0.3552 0.66767,-0.6459 1.97162,-0.6459 1.30395,0 2.19184,0.2896 1.97308,0.6436 -0.21876,0.3539 0.7382,0.5828 2.12658,0.5087 1.38838,-0.074 2.93954,-0.7913 3.44702,-1.5936 0.80203,-1.2679 0.9267,-1.2625 0.95332,0.041 0.0272,1.3333 0.13833,1.3333 1,0 0.53316,-0.825 0.96937,-1.95 0.96937,-2.5 0,-0.55 -0.43621,-0.325 -0.96937,0.5 -0.69658,1.0779 -0.96937,0.093 -0.96937,-3.5 0,-3.331 0.29892,-4.5277 0.89553,-3.5852 0.49255,0.7781 0.74514,2.1957 0.56131,3.1503 -0.33569,1.7431 1.69418,2.0866 3.23359,0.5472 0.42842,-0.4284 0.16372,-0.629 -0.58822,-0.4456 -0.75194,0.1833 -1.50568,-0.4954 -1.67497,-1.5083 -0.6165,-3.6887 -0.2622,-3.6348 -27.95787,-4.2537 -36.11452,-0.8071 -28.01953,-1.1 34.67385,-1.2549 l 60.67386,-0.1498 0.32614,8.0024 0.32615,8.0023 h -55.41667 c -30.47916,-10e-4 -55.21821,-0.2008 -54.97566,-0.4433 z m 47.51786,-3.809 c 0.0574,-1.7875 -0.11436,-2.6366 -0.38165,-1.8868 -0.4103,1.1508 -0.6233,1.1508 -1.36773,0 -0.64859,-1.0027 -0.80725,-0.8344 -0.60002,0.6368 0.24878,1.7661 1.49027,4.5 2.04348,4.5 0.11087,0 0.24853,-1.4625 0.30592,-3.25 z m 9.96648,2.0087 c 0.50441,0.4118 0.54964,0.3089 0.10176,-0.2316 -0.9823,-1.1854 -7.79581,-1.5012 -7.07057,-0.3278 0.28325,0.4583 0.90281,0.5936 1.3768,0.3007 0.47399,-0.2929 1.15796,-0.053 1.51993,0.5323 0.45669,0.7389 1.04163,0.7465 1.91111,0.025 0.68914,-0.572 1.66157,-0.7063 2.16097,-0.2986 z m 0.40799,-3.7779 c 0.275,-0.1197 0.95,-0.1268 1.5,-0.016 0.55,0.1109 0.6372,-0.1611 0.19377,-0.6045 -1.26502,-1.265 -7.36044,-1.1306 -7.36044,0.1624 0,0.95 3.82579,1.2591 5.66667,0.4579 z m -22.30958,-0.5959 c 0.68252,-7.0169 1.11756,-7.6078 1.38774,-1.8849 l 0.23605,5 0.68579,-5 0.68579,-5 0.14179,4.5 c 0.078,2.475 -0.29442,5.175 -0.82758,6 -0.86167,1.3333 -0.97278,1.3333 -1,0 -0.0255,-1.2468 -0.17866,-1.2662 -0.90768,-0.1151 -0.54025,0.853 -0.69459,-0.491 -0.4019,-3.5 z m -2.19042,-1.3849 c 0.10517,-2.2135 0.43283,-4.2662 0.72813,-4.5615 0.29531,-0.2953 0.45629,1.2688 0.35774,3.4756 -0.0986,2.2069 -0.42621,4.2596 -0.72813,4.5615 -0.30192,0.3019 -0.46291,-1.2621 -0.35774,-3.4756 z m 35.12664,-32.0104 c -18.00319,-3.7935 -33.17516,-9.1453 -48.69974,-17.1787 -5.26521,-2.7245 -10.89021,-6.0625 -12.5,-7.4176 -2.00844,-1.6908 -1.201,-1.3983 2.5731,0.9323 6.88687,4.2527 12.48582,7.1068 18.90701,9.6378 4.58537,1.8073 4.9617,1.8287 4.48034,0.2548 -0.28902,-0.945 0.16465,-0.5932 1.00814,0.7818 1.74524,2.8449 2.18287,0.9492 0.50474,-2.1864 -0.79969,-1.4942 -0.79969,-1.8695 0,-1.3753 0.72229,0.4464 1.09977,-0.5621 1.09977,-2.9383 0,-1.9994 -0.41988,-3.3585 -0.93853,-3.038 -0.5162,0.319 -0.76881,1.4614 -0.56136,2.5386 0.2179,1.1315 -0.12476,1.8616 -0.81147,1.729 -0.65375,-0.1263 -1.06499,0.3664 -0.91386,1.0947 0.15297,0.7373 -0.20838,1.0258 -0.81515,0.6508 -0.73241,-0.4527 -0.52569,-1.2971 0.63021,-2.5744 0.94608,-1.0454 1.33539,-1.9007 0.86515,-1.9007 -0.47025,0 -0.32113,-0.5339 0.33136,-1.1863 0.91512,-0.9152 0.78939,-1.6542 -0.55,-3.2328 -1.65076,-1.9456 -1.65009,-1.9796 0.0136,-0.6912 2.00848,1.5554 2.36637,0.2015 0.5,-1.8915 -1.06341,-1.1925 -0.98877,-1.2041 0.5,-0.078 0.9625,0.7284 1.75,0.8743 1.75,0.3243 0,-1.1143 -2.97216,-3.8386 -3.90369,-3.5783 -0.32797,0.092 -0.82131,-0.058 -1.09631,-0.3333 -0.275,-0.275 0.11343,-0.35 0.86319,-0.1667 0.78398,0.1917 1.52882,-0.6485 1.75301,-1.9775 0.26345,-1.5617 0.0146,-2.079 -0.76769,-1.5955 -0.72076,0.4454 -0.88665,0.2771 -0.43964,-0.4462 0.40149,-0.6496 0.0314,-1.425 -0.83974,-1.7593 -0.85671,-0.3287 -1.30867,-1.0006 -1.00437,-1.4929 0.3043,-0.4924 0.15346,-0.8952 -0.3352,-0.8952 -0.98592,0 -12.49942,-19.7837 -14.24602,-24.479 -1.62969,-4.381 -0.6739,-2.9634 4.00529,5.9405 11.97842,22.7935 28.91687,39.5531 46.51117,46.0202 2.75,1.0108 6.8,3.5056 9,5.5441 2.2,2.0385 5.79196,4.8916 7.98213,6.3403 l 3.98214,2.6339 -4.98214,-0.07 c -2.74017,-0.039 -8.97514,-0.9118 -13.85549,-1.9401 z m -13.95997,-6.4563 c 0,-0.6233 -1.03041,-1.1333 -2.2898,-1.1333 -1.59273,0 -2.00346,0.345 -1.34921,1.1333 0.51732,0.6234 1.54773,1.1334 2.2898,1.1334 0.74206,0 1.34921,-0.51 1.34921,-1.1334 z m -10.53911,-4.2833 c 1.24387,-1.5861 1.2085,-1.6214 -0.37756,-0.3776 -0.9625,0.7549 -1.75,1.5424 -1.75,1.75 0,0.8231 0.82119,0.2934 2.12756,-1.3724 z m 7.43513,0.5207 c 0.34131,-0.3414 -0.0826,-0.5174 -0.94211,-0.3913 -0.85948,0.1262 -1.84195,0.5086 -2.18327,0.85 -0.34131,0.3413 0.0826,0.5173 0.94211,0.3912 0.85948,-0.1262 1.84195,-0.5086 2.18327,-0.8499 z m -9.89602,-1.104 c 1.19113,-1.1912 1.25512,-3.7364 0.0756,-3.0074 -0.72396,0.4474 -0.82081,0.035 -0.29259,-1.2453 0.43427,-1.0527 0.86156,-2.814 0.94955,-3.914 0.088,-1.1 0.49149,-2.5314 0.89668,-3.1809 0.40519,-0.6495 0.20983,-1.5065 -0.43412,-1.9045 -0.70462,-0.4355 -0.90371,-0.2914 -0.5,0.3618 0.36895,0.597 0.24114,1.351 -0.28402,1.6755 -0.52517,0.3246 -0.79762,1.4066 -0.60546,2.4044 0.19216,0.9978 -0.0969,2.4508 -0.6424,3.2289 -0.68125,0.9718 -0.81456,-0.3226 -0.42577,-4.134 0.57436,-5.6304 -1.31281,-10.7437 -3.47257,-9.4089 -0.51237,0.3167 -0.93158,-0.099 -0.93158,-0.9243 0,-0.825 -0.4105,-1.7537 -0.91222,-2.0637 -1.30521,-0.8067 -0.73845,1.9568 0.77544,3.7809 0.94332,1.1366 0.99632,2.0587 0.20347,3.5402 -0.768,1.435 -0.76105,2.1955 0.0245,2.681 0.6324,0.3908 0.91389,2.4271 0.66498,4.8106 -0.69656,6.6704 1.8115,10.3987 4.91052,7.2997 z m -3.67542,-0.6667 c -0.0821,-0.825 -0.24623,-5.2481 -0.36469,-9.8291 -0.18238,-7.053 -0.0159,-8.0562 1.08673,-6.5483 0.88281,1.2073 1.09788,3.3201 0.6679,6.5615 -0.47101,3.5507 -0.21855,5.4152 0.98119,7.2462 0.98958,1.5103 1.23229,2.7022 0.6265,3.0766 -0.54388,0.3361 -1.02051,-0.2029 -1.05917,-1.1979 -0.0627,-1.6147 -0.16256,-1.5942 -0.92971,0.191 -0.60147,1.3997 -0.90425,1.5498 -1.00875,0.5 z m 0.67103,-14.25 c -0.27741,-0.6875 -0.50439,-0.125 -0.50439,1.25 0,1.375 0.22698,1.9375 0.50439,1.25 0.27741,-0.6875 0.27741,-1.8125 0,-2.5 z m 9.78493,13.1646 c -0.32197,-0.521 -1.01165,-0.6838 -1.53262,-0.3618 -0.52097,0.322 -0.68378,1.0116 -0.3618,1.5326 0.32197,0.521 1.01165,0.6838 1.53262,0.3618 0.52097,-0.322 0.68378,-1.0116 0.3618,-1.5326 z m -17.12255,-9.5726 c 0.36189,-0.3619 0.0994,-1.3744 -0.58334,-2.25 -1.09654,-1.4063 -1.0385,-1.433 0.49767,-0.2287 1.56442,1.2265 1.58594,3.1367 0.0353,3.1367 -0.33421,0 -0.31156,-0.2961 0.0503,-0.658 z m -0.99133,-5.798 c 0,-0.8008 0.38234,-1.2197 0.84965,-0.9309 0.4673,0.2888 0.59075,0.944 0.27431,1.456 -0.80862,1.3084 -1.12396,1.1611 -1.12396,-0.5251 z m -19.17089,-47.0868 c -1.67549,-3.6773 -1.35583,-4.4618 0.45586,-1.1188 0.84602,1.5611 1.3511,3.0255 1.1224,3.2542 -0.2287,0.2287 -0.93892,-0.7322 -1.57826,-2.1354 z m -2.08349,-6.0405 c 0.048,-1.165 0.28494,-1.4019 0.60416,-0.6042 0.28887,0.7219 0.25335,1.5844 -0.0789,1.9167 -0.33229,0.3323 -0.56864,-0.2584 -0.52522,-1.3125 z m -8.07895,-22.4167 c -0.90129,-0.5825 -1.02463,-0.9755 -0.30902,-0.9847 0.65504,-0.01 1.4691,0.4347 1.80902,0.9847 0.7673,1.2415 0.42112,1.2415 -1.5,0 z"
           id="path3811" /></g><text
         xml:space="preserve"
         transform="matrix(3.4415479,0,0,3.5972906,2823.0572,-2405.9899)"
         id="text4220"
         style="font-style:normal;font-variant:normal;font-weight:normal;font-stretch:normal;font-size:48px;font-family:'Arial Black';-inkscape-font-specification:'Arial Black, ';white-space:pre;shape-inside:url(#rect4222);fill:#8b8b8b;stroke:none"><tspan
           x="-1015.1973"
           y="1156.0271"
           id="tspan6295"><tspan
             style="font-family:'Hiragino Kaku Gothic StdN';-inkscape-font-specification:'Hiragino Kaku Gothic StdN'"
             id="tspan6293">Wohntraum</tspan></tspan></text><path
         style="fill:#fcfcfc;stroke:none;stroke-width:3.35431"
         d="m 525.75674,1614.5092 c 438.3432,-21.6123 449.72872,-21.6123 449.72872,-21.6123 v 605.1497 H 531.44949 Z"
         id="path5078" /><path
         style="fill:#d8a820;stroke:none"
         d="m 638.18892,2191.433 c 3.30683,-181.8756 0,-188.4893 0,-188.4893 l 125.6595,3.3068 6.61366,185.1825 z"
         id="path5446" /><rect
         style="fill:#63452c;stroke:#996600;stroke-width:1.16038;stroke-opacity:1"
         id="rect6029"
         width="42.828396"
         height="151.95375"
         x="892.89496"
         y="2039.3989" /><ellipse
         style="fill:#80e800;stroke:none;stroke-width:1.07044"
         id="path5752"
         cx="920.92279"
         cy="1974.8356"
         rx="110.77876"
         ry="90.93779" /><path
         style="fill:#fcfcfc;stroke:#000000;stroke-opacity:1"
         d="m 972.17864,1930.1935 h 6.61365"
         id="path5923" /></g></g></svg>
